<svg id="visual" viewBox="0 0 1920 1080" width="1920" height="1080" xmlns="http://www.w3.org/2000/svg" xmlns:xlink="http://www.w3.org/1999/xlink" version="1.1"><path d="M1513 1080L1530.3 1057.5C1547.7 1035 1582.3 990 1574.2 945C1566 900 1515 855 1502.8 810C1490.7 765 1517.3 720 1525.5 675C1533.7 630 1523.3 585 1513 540C1502.7 495 1492.3 450 1493.3 405C1494.3 360 1506.7 315 1519 270C1531.3 225 1543.7 180 1536.3 135C1529 90 1502 45 1488.5 22.5L1475 0L1920 0L1920 22.5C1920 45 1920 90 1920 135C1920 180 1920 225 1920 270C1920 315 1920 360 1920 405C1920 450 1920 495 1920 540C1920 585 1920 630 1920 675C1920 720 1920 765 1920 810C1920 855 1920 900 1920 945C1920 990 1920 1035 1920 1057.5L1920 1080Z" fill="#2b2d42"></path><path d="M1560 1080L1578 1057.5C1596 1035 1632 990 1627.2 945C1622.3 900 1576.7 855 1574.8 810C1573 765 1615 720 1630.2 675C1645.3 630 1633.7 585 1618.5 540C1603.3 495 1584.7 450 1581.5 405C1578.3 360 1590.7 315 1581.8 270C1573 225 1543 180 1549.7 135C1556.3 90 1599.7 45 1621.3 22.5L1643 0L1920 0L1920 22.5C1920 45 1920 90 1920 135C1920 180 1920 225 1920 270C1920 315 1920 360 1920 405C1920 450 1920 495 1920 540C1920 585 1920 630 1920 675C1920 720 1920 765 1920 810C1920 855 1920 900 1920 945C1920 990 1920 1035 1920 1057.5L1920 1080Z" fill="#3d4156"></path><path d="M1721 1080L1702.5 1057.5C1684 1035 1647 990 1633.7 945C1620.3 900 1630.7 855 1628.2 810C1625.7 765 1610.3 720 1615.2 675C1620 630 1645 585 1644 540C1643 495 1616 450 1621.3 405C1626.7 360 1664.3 315 1667.2 270C1670 225 1638 180 1633.7 135C1629.3 90 1652.7 45 1664.3 22.5L1676 0L1920 0L1920 22.5C1920 45 1920 90 1920 135C1920 180 1920 225 1920 270C1920 315 1920 360 1920 405C1920 450 1920 495 1920 540C1920 585 1920 630 1920 675C1920 720 1920 765 1920 810C1920 855 1920 900 1920 945C1920 990 1920 1035 1920 1057.5L1920 1080Z" fill="#4f556b"></path><path d="M1765 1080L1748.2 1057.5C1731.3 1035 1697.7 990 1688.8 945C1680 900 1696 855 1697.7 810C1699.3 765 1686.7 720 1686.8 675C1687 630 1700 585 1707.3 540C1714.7 495 1716.3 450 1718.8 405C1721.3 360 1724.7 315 1725.2 270C1725.7 225 1723.3 180 1712 135C1700.7 90 1680.3 45 1670.2 22.5L1660 0L1920 0L1920 22.5C1920 45 1920 90 1920 135C1920 180 1920 225 1920 270C1920 315 1920 360 1920 405C1920 450 1920 495 1920 540C1920 585 1920 630 1920 675C1920 720 1920 765 1920 810C1920 855 1920 900 1920 945C1920 990 1920 1035 1920 1057.5L1920 1080Z" fill="#636b81"></path><path d="M1799 1080L1790.5 1057.5C1782 1035 1765 990 1764.3 945C1763.7 900 1779.3 855 1777.8 810C1776.3 765 1757.7 720 1747.5 675C1737.3 630 1735.7 585 1740.5 540C1745.3 495 1756.7 450 1765.3 405C1774 360 1780 315 1777.5 270C1775 225 1764 180 1762 135C1760 90 1767 45 1770.5 22.5L1774 0L1920 0L1920 22.5C1920 45 1920 90 1920 135C1920 180 1920 225 1920 270C1920 315 1920 360 1920 405C1920 450 1920 495 1920 540C1920 585 1920 630 1920 675C1920 720 1920 765 1920 810C1920 855 1920 900 1920 945C1920 990 1920 1035 1920 1057.5L1920 1080Z" fill="#788297"></path><path d="M1806 1080L1811 1057.5C1816 1035 1826 990 1837.3 945C1848.7 900 1861.3 855 1862.7 810C1864 765 1854 720 1852.8 675C1851.7 630 1859.3 585 1862.2 540C1865 495 1863 450 1860.8 405C1858.7 360 1856.3 315 1856.8 270C1857.3 225 1860.7 180 1863.2 135C1865.7 90 1867.3 45 1868.2 22.5L1869 0L1920 0L1920 22.5C1920 45 1920 90 1920 135C1920 180 1920 225 1920 270C1920 315 1920 360 1920 405C1920 450 1920 495 1920 540C1920 585 1920 630 1920 675C1920 720 1920 765 1920 810C1920 855 1920 900 1920 945C1920 990 1920 1035 1920 1057.5L1920 1080Z" fill="#8d99ae"></path></svg>