<svg id="visual" viewBox="0 0 960 300" width="960" height="300" xmlns="http://www.w3.org/2000/svg" xmlns:xlink="http://www.w3.org/1999/xlink" version="1.1"><rect x="0" y="0" width="960" height="300" fill="#EDF2F4"></rect><path d="M0 146L17.8 147.2C35.7 148.3 71.3 150.7 106.8 156.7C142.3 162.7 177.7 172.3 213.2 173C248.7 173.7 284.3 165.3 320 159.8C355.7 154.3 391.3 151.7 426.8 154C462.3 156.3 497.7 163.7 533.2 168.7C568.7 173.7 604.3 176.3 640 178.2C675.7 180 711.3 181 746.8 176.3C782.3 171.7 817.7 161.3 853.2 155.5C888.7 149.7 924.3 148.3 942.2 147.7L960 147L960 301L942.2 301C924.3 301 888.7 301 853.2 301C817.7 301 782.3 301 746.8 301C711.3 301 675.7 301 640 301C604.3 301 568.7 301 533.2 301C497.7 301 462.3 301 426.8 301C391.3 301 355.7 301 320 301C284.3 301 248.7 301 213.2 301C177.7 301 142.3 301 106.8 301C71.3 301 35.7 301 17.8 301L0 301Z" fill="#2b2d42"></path><path d="M0 173L17.8 177.2C35.7 181.3 71.3 189.7 106.8 189.3C142.3 189 177.7 180 213.2 177.8C248.7 175.7 284.3 180.3 320 179.7C355.7 179 391.3 173 426.8 176.5C462.3 180 497.7 193 533.2 196.8C568.7 200.7 604.3 195.3 640 192C675.7 188.7 711.3 187.3 746.8 186.3C782.3 185.3 817.7 184.7 853.2 187C888.7 189.3 924.3 194.7 942.2 197.3L960 200L960 301L942.2 301C924.3 301 888.7 301 853.2 301C817.7 301 782.3 301 746.8 301C711.3 301 675.7 301 640 301C604.3 301 568.7 301 533.2 301C497.7 301 462.3 301 426.8 301C391.3 301 355.7 301 320 301C284.3 301 248.7 301 213.2 301C177.7 301 142.3 301 106.8 301C71.3 301 35.7 301 17.8 301L0 301Z" fill="#3d4156"></path><path d="M0 193L17.8 196.8C35.7 200.7 71.3 208.3 106.8 210.3C142.3 212.3 177.7 208.7 213.2 205.7C248.7 202.7 284.3 200.3 320 200.3C355.7 200.3 391.3 202.7 426.8 206C462.3 209.3 497.7 213.7 533.2 213.8C568.7 214 604.3 210 640 209C675.7 208 711.3 210 746.8 212.5C782.3 215 817.7 218 853.2 219C888.7 220 924.3 219 942.2 218.5L960 218L960 301L942.2 301C924.3 301 888.7 301 853.2 301C817.7 301 782.3 301 746.8 301C711.3 301 675.7 301 640 301C604.3 301 568.7 301 533.2 301C497.7 301 462.3 301 426.8 301C391.3 301 355.7 301 320 301C284.3 301 248.7 301 213.2 301C177.7 301 142.3 301 106.8 301C71.3 301 35.7 301 17.8 301L0 301Z" fill="#4f556b"></path><path d="M0 221L17.8 220C35.7 219 71.3 217 106.8 216.7C142.3 216.3 177.7 217.7 213.2 221.7C248.7 225.7 284.3 232.3 320 234C355.7 235.7 391.3 232.3 426.8 232C462.3 231.7 497.7 234.3 533.2 236.3C568.7 238.3 604.3 239.7 640 238.5C675.7 237.3 711.3 233.7 746.8 233.3C782.3 233 817.7 236 853.2 233.7C888.7 231.3 924.3 223.7 942.2 219.8L960 216L960 301L942.2 301C924.3 301 888.7 301 853.2 301C817.7 301 782.3 301 746.8 301C711.3 301 675.7 301 640 301C604.3 301 568.7 301 533.2 301C497.7 301 462.3 301 426.8 301C391.3 301 355.7 301 320 301C284.3 301 248.7 301 213.2 301C177.7 301 142.3 301 106.8 301C71.3 301 35.7 301 17.8 301L0 301Z" fill="#636b81"></path><path d="M0 259L17.8 259.2C35.7 259.3 71.3 259.7 106.8 260C142.3 260.3 177.7 260.7 213.2 259.8C248.7 259 284.3 257 320 256.5C355.7 256 391.3 257 426.8 256.2C462.3 255.3 497.7 252.7 533.2 250.5C568.7 248.3 604.3 246.7 640 246.3C675.7 246 711.3 247 746.8 246.5C782.3 246 817.7 244 853.2 244.7C888.7 245.3 924.3 248.7 942.2 250.3L960 252L960 301L942.2 301C924.3 301 888.7 301 853.2 301C817.7 301 782.3 301 746.8 301C711.3 301 675.7 301 640 301C604.3 301 568.7 301 533.2 301C497.7 301 462.3 301 426.8 301C391.3 301 355.7 301 320 301C284.3 301 248.7 301 213.2 301C177.7 301 142.3 301 106.8 301C71.3 301 35.7 301 17.8 301L0 301Z" fill="#788297"></path><path d="M0 272L17.8 272.5C35.7 273 71.3 274 106.8 273.8C142.3 273.7 177.7 272.3 213.2 270.3C248.7 268.3 284.3 265.7 320 267C355.7 268.3 391.3 273.7 426.8 273.3C462.3 273 497.7 267 533.2 266.7C568.7 266.3 604.3 271.7 640 275C675.7 278.3 711.3 279.7 746.8 277C782.3 274.3 817.7 267.7 853.2 268.2C888.7 268.7 924.3 276.3 942.2 280.2L960 284L960 301L942.2 301C924.3 301 888.7 301 853.2 301C817.7 301 782.3 301 746.8 301C711.3 301 675.7 301 640 301C604.3 301 568.7 301 533.2 301C497.7 301 462.3 301 426.8 301C391.3 301 355.7 301 320 301C284.3 301 248.7 301 213.2 301C177.7 301 142.3 301 106.8 301C71.3 301 35.7 301 17.8 301L0 301Z" fill="#8d99ae"></path></svg>