<svg id="visual" viewBox="0 0 1920 1080" width="1920" height="1080" xmlns="http://www.w3.org/2000/svg" xmlns:xlink="http://www.w3.org/1999/xlink" version="1.1"><path d="M409 0L391.7 22.5C374.3 45 339.7 90 347.8 135C356 180 407 225 419.2 270C431.3 315 404.7 360 396.5 405C388.3 450 398.7 495 409 540C419.3 585 429.7 630 428.7 675C427.7 720 415.3 765 403 810C390.7 855 378.3 900 385.7 945C393 990 420 1035 433.5 1057.5L447 1080L0 1080L0 1057.5C0 1035 0 990 0 945C0 900 0 855 0 810C0 765 0 720 0 675C0 630 0 585 0 540C0 495 0 450 0 405C0 360 0 315 0 270C0 225 0 180 0 135C0 90 0 45 0 22.5L0 0Z" fill="#2b2d42"></path><path d="M362 0L344 22.5C326 45 290 90 294.8 135C299.7 180 345.3 225 347.2 270C349 315 307 360 291.8 405C276.7 450 288.3 495 303.5 540C318.7 585 337.3 630 340.5 675C343.7 720 331.3 765 340.2 810C349 855 379 900 372.3 945C365.7 990 322.3 1035 300.7 1057.5L279 1080L0 1080L0 1057.5C0 1035 0 990 0 945C0 900 0 855 0 810C0 765 0 720 0 675C0 630 0 585 0 540C0 495 0 450 0 405C0 360 0 315 0 270C0 225 0 180 0 135C0 90 0 45 0 22.5L0 0Z" fill="#3d4156"></path><path d="M201 0L219.5 22.5C238 45 275 90 288.3 135C301.7 180 291.3 225 293.8 270C296.3 315 311.7 360 306.8 405C302 450 277 495 278 540C279 585 306 630 300.7 675C295.3 720 257.7 765 254.8 810C252 855 284 900 288.3 945C292.7 990 269.3 1035 257.7 1057.5L246 1080L0 1080L0 1057.5C0 1035 0 990 0 945C0 900 0 855 0 810C0 765 0 720 0 675C0 630 0 585 0 540C0 495 0 450 0 405C0 360 0 315 0 270C0 225 0 180 0 135C0 90 0 45 0 22.5L0 0Z" fill="#4f556b"></path><path d="M157 0L173.8 22.5C190.7 45 224.3 90 233.2 135C242 180 226 225 224.3 270C222.7 315 235.3 360 235.2 405C235 450 222 495 214.7 540C207.3 585 205.7 630 203.2 675C200.7 720 197.3 765 196.8 810C196.3 855 198.7 900 210 945C221.3 990 241.7 1035 251.8 1057.5L262 1080L0 1080L0 1057.5C0 1035 0 990 0 945C0 900 0 855 0 810C0 765 0 720 0 675C0 630 0 585 0 540C0 495 0 450 0 405C0 360 0 315 0 270C0 225 0 180 0 135C0 90 0 45 0 22.5L0 0Z" fill="#636b81"></path><path d="M123 0L131.5 22.5C140 45 157 90 157.7 135C158.3 180 142.7 225 144.2 270C145.7 315 164.3 360 174.5 405C184.7 450 186.3 495 181.5 540C176.7 585 165.3 630 156.7 675C148 720 142 765 144.5 810C147 855 158 900 160 945C162 990 155 1035 151.5 1057.5L148 1080L0 1080L0 1057.5C0 1035 0 990 0 945C0 900 0 855 0 810C0 765 0 720 0 675C0 630 0 585 0 540C0 495 0 450 0 405C0 360 0 315 0 270C0 225 0 180 0 135C0 90 0 45 0 22.5L0 0Z" fill="#788297"></path><path d="M116 0L111 22.5C106 45 96 90 84.7 135C73.3 180 60.7 225 59.3 270C58 315 68 360 69.2 405C70.3 450 62.7 495 59.8 540C57 585 59 630 61.2 675C63.3 720 65.7 765 65.2 810C64.7 855 61.3 900 58.8 945C56.3 990 54.7 1035 53.8 1057.5L53 1080L0 1080L0 1057.5C0 1035 0 990 0 945C0 900 0 855 0 810C0 765 0 720 0 675C0 630 0 585 0 540C0 495 0 450 0 405C0 360 0 315 0 270C0 225 0 180 0 135C0 90 0 45 0 22.5L0 0Z" fill="#8d99ae"></path></svg>